<?xml version="1.0" encoding="utf-8"?>
<!-- Generator: Adobe Illustrator 16.0.0, SVG Export Plug-In . SVG Version: 6.00 Build 0)  -->
<!DOCTYPE svg PUBLIC "-//W3C//DTD SVG 1.1//EN" "http://www.w3.org/Graphics/SVG/1.1/DTD/svg11.dtd">
<svg version="1.1" id="Layer_1" xmlns="http://www.w3.org/2000/svg" xmlns:xlink="http://www.w3.org/1999/xlink" x="0px" y="0px"
	 width="103.106px" height="50.833px" viewBox="0 0 103.106 50.833" enable-background="new 0 0 103.106 50.833"
	 xml:space="preserve">
<path fill="#F5CD81" d="M50.378,25.569c0-13.719-11.121-24.841-24.85-24.841c-13.694,0-24.815,11.122-24.815,24.841
	c0,13.719,11.122,24.841,24.815,24.841C39.257,50.41,50.378,39.288,50.378,25.569z"/>
<circle cx="77.553" cy="25.569" r="24.841"/>
<path fill="#721618" d="M34.693,15.288H16.401c-0.627,0-1.136,0.508-1.136,1.135v18.291c0,0.627,0.509,1.137,1.136,1.137h9.848
	v-7.963h-2.68v-3.104h2.68v-2.289c0-2.656,1.622-4.102,3.99-4.102c1.136,0,2.111,0.084,2.396,0.123v2.774l-1.644,0.001
	c-1.289,0-1.537,0.612-1.537,1.511v1.981h3.072l-0.4,3.104h-2.672v7.963h5.238c0.627,0,1.135-0.51,1.135-1.137V16.423
	C35.827,15.796,35.319,15.288,34.693,15.288z"/>
<path fill="#F5CD81" d="M86.71,15.288H68.418c-0.627,0-1.136,0.508-1.136,1.135v18.291c0,0.627,0.509,1.137,1.136,1.137h9.848
	v-7.963h-2.68v-3.104h2.68v-2.289c0-2.656,1.622-4.102,3.99-4.102c1.136,0,2.111,0.084,2.396,0.123v2.774l-1.644,0.001
	c-1.289,0-1.537,0.612-1.537,1.511v1.981h3.072l-0.4,3.104h-2.672v7.963h5.238c0.627,0,1.135-0.51,1.135-1.137V16.423
	C87.844,15.796,87.336,15.288,86.71,15.288z"/>
</svg>
