<?xml version="1.0" encoding="utf-8"?>
<!-- Generator: Adobe Illustrator 16.0.0, SVG Export Plug-In . SVG Version: 6.00 Build 0)  -->
<!DOCTYPE svg PUBLIC "-//W3C//DTD SVG 1.1//EN" "http://www.w3.org/Graphics/SVG/1.1/DTD/svg11.dtd">
<svg version="1.1" id="Layer_1" xmlns="http://www.w3.org/2000/svg" xmlns:xlink="http://www.w3.org/1999/xlink" x="0px" y="0px"
	 width="240.839px" height="112px" viewBox="0 0 240.839 112" enable-background="new 0 0 240.839 112" xml:space="preserve">
<path d="M14.87,2.315c-3.756,3.289-4.093,8.192-4.093,13.318v27.298c0,3.86,0.115,6.147-2.053,9.102
	c-1.48,2.392-3.528,3.641-5.804,4.214v0.225c6.714,1.827,7.857,5.354,7.857,13.098v25.016c0,4.555,0.115,10.469,3.07,13.893
	c1.566,1.898,3.534,2.939,5.639,3.521h201.867c2.105-0.581,4.073-1.622,5.639-3.521c2.956-3.424,3.07-9.338,3.07-13.893V69.571
	c0-7.745,1.144-11.271,7.858-13.098v-0.225c-2.276-0.573-4.323-1.822-5.804-4.214c-2.168-2.954-2.054-5.241-2.054-9.102V15.634
	c0-5.126-0.336-10.029-4.093-13.318c-1.557-1.202-3.083-1.898-4.616-2.315H19.486C17.952,0.417,16.428,1.113,14.87,2.315z"/>
<g>
	<g>
		<path fill="#EBE7D9" d="M65.034,87.308l-1.521,0.364l-0.053-2.041l2.887-0.768h1.833l-2.457,9.166H63.24L65.034,87.308z"/>
		<path fill="#EBE7D9" d="M70.597,87.308l-1.521,0.364l-0.052-2.041l2.887-0.768h1.833l-2.457,9.166h-2.483L70.597,87.308z"/>
		<path fill="#EBE7D9" d="M75.069,92.027c-0.715,0-1.223-0.508-1.223-1.223c0-0.182,0.039-0.352,0.104-0.507
			c0.091-0.689,0.728-1.287,1.443-1.287c0.728,0,1.234,0.521,1.234,1.222c0,0.182-0.039,0.352-0.104,0.508
			C76.434,91.429,75.796,92.027,75.069,92.027z"/>
		<path fill="#EBE7D9" d="M76.746,92.455l1.716-1.416c0.494,0.649,1.079,1.014,1.925,1.014c0.91,0,1.521-0.52,1.521-1.079
			c0-0.533-0.455-0.832-1.417-0.832h-0.871l-0.052-1.3l2.548-1.872h-3.406l0.547-2.041h6.578l-0.494,1.807l-2.782,1.938
			c1.144,0.312,1.846,1.053,1.846,2.21c0,1.988-1.65,3.328-4.017,3.328C78.722,94.211,77.5,93.574,76.746,92.455z"/>
		<path fill="#EBE7D9" d="M85.625,90.519c0-2.886,1.989-5.772,5.031-5.772c2.275,0,3.653,1.6,3.653,3.692
			c0,2.899-1.989,5.772-5.044,5.772C87.002,94.211,85.625,92.625,85.625,90.519z M91.748,88.582c0-1.08-0.546-1.6-1.312-1.6
			c-1.391,0-2.249,1.924-2.249,3.406c0,1.066,0.533,1.6,1.3,1.6C90.877,91.988,91.748,90.063,91.748,88.582z"/>
		<path fill="#EBE7D9" d="M94.4,92.261c0-1.547,1.235-2.483,3.094-2.483c0.638,0,1.223,0.104,1.781,0.273l0.026-0.092
			c0.025-0.116,0.064-0.26,0.064-0.428c0-0.455-0.351-0.755-1.209-0.755c-0.663,0-1.403,0.156-1.897,0.351l-0.352-1.793
			c0.741-0.26,1.755-0.43,2.77-0.43c2.105,0,3.133,0.832,3.133,2.236c0,0.325-0.052,0.663-0.143,1.014l-1.04,3.875h-2.432
			l0.195-0.754c-0.598,0.559-1.209,0.896-2.028,0.896C95.206,94.172,94.4,93.431,94.4,92.261z M98.95,91.377l0.065-0.234
			c-0.273-0.091-0.585-0.156-0.923-0.156c-0.78,0-1.287,0.377-1.287,1.015c0,0.403,0.286,0.649,0.702,0.649
			C98.144,92.65,98.755,92.092,98.95,91.377z"/>
		<path fill="#EBE7D9" d="M103.733,86.996h2.471l-0.208,0.779c0.48-0.494,1.131-0.936,1.963-0.936c0.962,0,1.573,0.494,1.833,1.222
			c0.663-0.754,1.521-1.222,2.548-1.222c1.34,0,2.08,0.806,2.08,2.093c0,0.377-0.091,0.832-0.208,1.274l-1.026,3.822h-2.457
			l0.975-3.68c0.052-0.182,0.091-0.416,0.091-0.572c0-0.468-0.233-0.74-0.754-0.74c-0.663,0-1.066,0.468-1.287,1.273l-1.001,3.719
			h-2.47l0.987-3.68c0.053-0.182,0.092-0.416,0.092-0.572c0-0.468-0.247-0.74-0.754-0.74c-0.663,0-1.066,0.468-1.287,1.273
			l-1.002,3.719h-2.47L103.733,86.996z"/>
		<path fill="#EBE7D9" d="M115.68,88.906h10.504l-0.559,2.119h-10.518L115.68,88.906z"/>
		<path fill="#EBE7D9" d="M127.875,93.287c-0.611-0.61-0.937-1.442-0.937-2.508c0-1.639,0.598-3.381,1.781-4.564
			c0.871-0.87,2.067-1.455,3.575-1.455c1.195,0,2.21,0.363,2.938,0.988l-1.261,1.78c-0.468-0.416-1.118-0.702-1.781-0.702
			c-0.702,0-1.3,0.248-1.768,0.715c-0.325,0.326-0.599,0.768-0.768,1.248c0.455-0.39,1.223-0.715,2.08-0.715
			c1.417,0,2.613,0.897,2.613,2.471c0,2.002-1.755,3.652-3.926,3.652C129.369,94.197,128.459,93.873,127.875,93.287z
			 M131.865,90.844c0-0.598-0.441-1.014-1.092-1.014c-0.884,0-1.481,0.676-1.481,1.43c0,0.286,0.104,0.533,0.285,0.702
			c0.195,0.194,0.481,0.325,0.846,0.325C131.28,92.287,131.865,91.572,131.865,90.844z"/>
		<path fill="#EBE7D9" d="M136.571,92.027c-0.715,0-1.223-0.508-1.223-1.223c0-0.182,0.039-0.352,0.104-0.507
			c0.091-0.689,0.728-1.287,1.443-1.287c0.728,0,1.234,0.521,1.234,1.222c0,0.182-0.039,0.352-0.104,0.508
			C137.936,91.429,137.298,92.027,136.571,92.027z"/>
		<path fill="#EBE7D9" d="M139.209,90.519c0-2.886,1.989-5.772,5.031-5.772c2.275,0,3.653,1.6,3.653,3.692
			c0,2.899-1.989,5.772-5.044,5.772C140.587,94.211,139.209,92.625,139.209,90.519z M145.333,88.582c0-1.08-0.547-1.6-1.313-1.6
			c-1.392,0-2.249,1.924-2.249,3.406c0,1.066,0.533,1.6,1.3,1.6C144.462,91.988,145.333,90.063,145.333,88.582z"/>
		<path fill="#EBE7D9" d="M148.622,90.519c0-2.886,1.989-5.772,5.031-5.772c2.275,0,3.653,1.6,3.653,3.692
			c0,2.899-1.989,5.772-5.044,5.772C150,94.211,148.622,92.625,148.622,90.519z M154.746,88.582c0-1.08-0.547-1.6-1.313-1.6
			c-1.392,0-2.249,1.924-2.249,3.406c0,1.066,0.533,1.6,1.3,1.6C153.875,91.988,154.746,90.063,154.746,88.582z"/>
		<path fill="#EBE7D9" d="M158.996,86.996h2.471l-0.208,0.74c0.559-0.546,1.235-0.896,2.002-0.896c1.391,0,2.496,1.066,2.496,2.886
			c0,2.522-1.769,4.459-3.783,4.459c-1.053,0-1.703-0.454-2.132-1.118l-0.819,3.043h-2.47L158.996,86.996z M163.26,90.115
			c0-0.754-0.481-1.234-1.196-1.234c-0.949,0-1.742,0.936-1.742,2.002c0,0.754,0.508,1.248,1.223,1.248
			C162.467,92.131,163.26,91.234,163.26,90.115z"/>
		<path fill="#EBE7D9" d="M167.718,86.996h2.471l-0.208,0.779c0.48-0.494,1.131-0.936,1.963-0.936c0.962,0,1.573,0.494,1.833,1.222
			c0.663-0.754,1.521-1.222,2.548-1.222c1.339,0,2.08,0.806,2.08,2.093c0,0.377-0.091,0.832-0.208,1.274l-1.026,3.822h-2.457
			l0.975-3.68c0.052-0.182,0.091-0.416,0.091-0.572c0-0.468-0.233-0.74-0.754-0.74c-0.663,0-1.066,0.468-1.287,1.273l-1.001,3.719
			h-2.47l0.987-3.68c0.053-0.182,0.092-0.416,0.092-0.572c0-0.468-0.247-0.74-0.755-0.74c-0.662,0-1.065,0.468-1.286,1.273
			l-1.001,3.719h-2.471L167.718,86.996z"/>
	</g>
	<g>
		<path fill="#EBE7D9" d="M37.043,63.732h2.133l3.293-14.198h-2.402l0.405-1.782h6.586l-0.405,1.782h-2.187l-1.376,5.992h9.636
			l1.35-5.992H51.62l0.432-1.782h6.587l-0.405,1.782H56.1l-3.293,14.198h2.402l-0.432,1.782h-6.586l0.404-1.782h2.187l1.539-6.424
			h-9.664l-1.484,6.424h2.456l-0.404,1.782h-6.613L37.043,63.732z"/>
		<path fill="#EBE7D9" d="M56.943,63.732h1.619l8.477-14.225h-2.105l0.404-1.754h8.152l-0.405,1.754H71.06l1.89,14.225h1.89
			l-0.433,1.782h-5.803l0.404-1.754h1.971l-0.54-4.373h-7.233l-2.592,4.373h2.349l-0.432,1.754h-6.02L56.943,63.732z M70.197,57.659
			l-1.053-8.287l-4.913,8.287H70.197z"/>
		<path fill="#EBE7D9" d="M76.787,63.732h2.133l3.293-14.198H79.81l0.405-1.782h5.83c0.837,0,1.593,0.081,2.24,0.27
			c2.537,0.647,3.779,2.456,3.779,4.669c0,3.455-2.699,6.424-7.396,6.424c-0.998,0-2.105-0.027-2.646-0.054l-1.106,4.669h2.456
			l-0.404,1.782h-6.613L76.787,63.732z M90.041,52.827c0-1.512-0.811-2.646-2.483-3.104c-0.513-0.135-1.106-0.188-1.728-0.188h-1.62
			l-1.781,7.747c0.621,0.054,1.539,0.081,2.511,0.081C88.367,57.362,90.041,55.148,90.041,52.827z"/>
		<path fill="#EBE7D9" d="M91.987,63.732h2.133l3.293-14.198H95.01l0.405-1.782h5.83c0.837,0,1.593,0.081,2.24,0.27
			c2.537,0.647,3.779,2.456,3.779,4.669c0,3.455-2.699,6.424-7.396,6.424c-0.998,0-2.105-0.027-2.646-0.054l-1.106,4.669h2.456
			l-0.404,1.782h-6.613L91.987,63.732z M105.241,52.827c0-1.512-0.81-2.646-2.483-3.104c-0.513-0.135-1.106-0.188-1.728-0.188h-1.62
			l-1.781,7.747c0.621,0.054,1.539,0.081,2.511,0.081C103.567,57.362,105.241,55.148,105.241,52.827z"/>
		<path fill="#EBE7D9" d="M109.915,63.732h2.402l1.322-5.372l-3.077-8.826H108.7l0.432-1.782h5.938l-0.378,1.782h-2.052l2.376,7.315
			l5.938-7.315h-1.998l0.433-1.782h6.1l-0.404,1.782h-1.782l-7.773,9.204l-1.188,4.994h2.51l-0.378,1.782h-6.991L109.915,63.732z"/>
		<path fill="#EBE7D9" d="M129.328,63.732h2.133l3.293-14.198h-2.402l0.405-1.782h6.586l-0.405,1.782h-2.187l-1.376,5.992h9.636
			l1.35-5.992h-2.456l0.432-1.782h6.587l-0.405,1.782h-2.133l-3.293,14.198h2.402l-0.432,1.782h-6.586l0.404-1.782h2.187
			l1.539-6.424h-9.664l-1.484,6.424h2.456l-0.404,1.782h-6.613L129.328,63.732z"/>
		<path fill="#EBE7D9" d="M151.44,58.199c0-5.264,4.185-10.77,9.88-10.77c4.751,0,7.504,3.32,7.504,7.639
			c0,5.264-4.184,10.77-9.879,10.77C154.194,65.837,151.44,62.518,151.44,58.199z M166.746,55.094c0-3.158-1.809-5.83-5.588-5.83
			c-4.373,0-7.639,4.48-7.639,8.908c0,3.158,1.809,5.83,5.587,5.83C163.479,64.002,166.746,59.521,166.746,55.094z"/>
		<path fill="#EBE7D9" d="M172.042,60.601c0-0.648,0.108-1.377,0.271-2.132l2.078-8.935h-2.375l0.404-1.782h6.56l-0.405,1.782
			h-2.187l-2.078,9.042c-0.135,0.675-0.243,1.323-0.243,1.889c0,2.133,1.161,3.563,3.914,3.563s4.319-1.836,4.913-4.454
			l2.294-10.041h-2.456l0.404-1.782h6.56l-0.404,1.782h-2.133l-2.349,10.284c-0.837,3.617-2.942,5.992-7.045,5.992
			C174.066,65.811,172.042,63.705,172.042,60.601z"/>
		<path fill="#EBE7D9" d="M188.539,63.732h2.133l3.293-14.198h-2.402l0.405-1.782h5.452c2.349,0,4.076,0.54,5.183,1.62
			c0.81,0.81,1.215,1.862,1.215,3.131c0,2.672-1.89,4.805-5.075,5.534l2.699,5.695h2.079l-0.405,1.782h-3.104l-3.238-7.234
			c-0.297,0.027-0.567,0.027-0.892,0.027c-0.647,0-1.35-0.027-1.916-0.054l-1.296,5.479h2.43l-0.432,1.782h-6.56L188.539,63.732z
			 M201.792,52.611c0-0.81-0.271-1.485-0.811-2.025c-0.701-0.702-1.97-1.052-3.616-1.052h-1.404l-1.619,6.964
			c0.621,0.054,1.269,0.081,2.24,0.081C199.822,56.579,201.792,54.933,201.792,52.611z"/>
	</g>
	<g>
		<path fill="#EBE7D9" d="M63.179,20.751h2.548l1.209,3.523l3.094-3.523h2.835l-2.444,9.1h-2.535l1.391-5.226l-3.263,3.562h-0.052
			l-1.326-3.536l-1.404,5.2h-2.496L63.179,20.751z"/>
		<path fill="#EBE7D9" d="M72.799,25.938c0-2.769,2.262-5.356,5.421-5.356c2.587,0,4.343,1.768,4.343,4.083
			c0,2.769-2.263,5.356-5.408,5.356C74.554,30.02,72.799,28.252,72.799,25.938z M79.989,24.859c0-1.157-0.702-2.015-1.989-2.015
			c-1.586,0-2.626,1.547-2.626,2.899c0,1.157,0.702,2.015,1.989,2.015C78.961,27.758,79.989,26.211,79.989,24.859z"/>
		<path fill="#EBE7D9" d="M84.955,20.751h2.353l2.354,5.057l1.365-5.057h2.509l-2.444,9.1h-2.21l-2.457-5.239l-1.404,5.239H82.51
			L84.955,20.751z"/>
		<path fill="#EBE7D9" d="M95.082,20.751h2.938c1.769,0,2.873,0.481,3.562,1.17c0.676,0.676,0.988,1.56,0.988,2.665
			c0,1.365-0.521,2.613-1.495,3.588c-1.093,1.092-2.665,1.677-4.771,1.677h-3.666L95.082,20.751z M96.602,27.615
			c1.054,0,2.002-0.325,2.601-0.923c0.48-0.481,0.779-1.183,0.779-1.898c0-0.559-0.169-0.962-0.454-1.248
			c-0.339-0.351-0.897-0.559-1.781-0.559h-0.729l-1.248,4.628H96.602z"/>
		<path fill="#EBE7D9" d="M107.706,20.686h2.47l1.417,9.166h-2.652l-0.221-1.625h-3.51l-1.093,1.625h-2.742L107.706,20.686z
			 M108.511,26.263l-0.325-2.613l-1.703,2.613H108.511z"/>
		<path fill="#EBE7D9" d="M114.297,26.328l-1.833-5.577h2.717l0.897,3.406l2.743-3.406h3.016l-5.083,5.85l-0.871,3.25h-2.535
			L114.297,26.328z"/>
		<path fill="#EBE7D9" d="M120.083,24.729h10.504l-0.559,2.119H119.51L120.083,24.729z"/>
		<path fill="#EBE7D9" d="M132.992,20.751h7.28l-0.599,2.21h-4.745l-0.416,1.547h4.29l-0.559,2.093h-4.29l-0.871,3.25h-2.535
			L132.992,20.751z"/>
		<path fill="#EBE7D9" d="M141.428,20.751h3.433c1.521,0,2.521,0.338,3.133,0.949c0.481,0.481,0.702,1.131,0.702,1.859
			c0,1.521-0.871,2.717-2.73,3.225l1.404,3.068h-2.782l-1.209-2.756h-1.118l-0.74,2.756h-2.535L141.428,20.751z M144.224,25.119
			c1.131,0,1.872-0.481,1.872-1.261c0-0.247-0.078-0.442-0.234-0.611c-0.208-0.208-0.585-0.312-1.118-0.312h-1.365l-0.598,2.185
			H144.224z"/>
		<path fill="#EBE7D9" d="M150.814,20.751h2.522l-2.444,9.1h-2.521L150.814,20.751z"/>
		<path fill="#EBE7D9" d="M154.949,20.751h2.938c1.769,0,2.873,0.481,3.562,1.17c0.676,0.676,0.988,1.56,0.988,2.665
			c0,1.365-0.521,2.613-1.495,3.588c-1.093,1.092-2.665,1.677-4.771,1.677h-3.666L154.949,20.751z M156.469,27.615
			c1.054,0,2.002-0.325,2.601-0.923c0.48-0.481,0.779-1.183,0.779-1.898c0-0.559-0.169-0.962-0.454-1.248
			c-0.339-0.351-0.897-0.559-1.781-0.559h-0.729l-1.248,4.628H156.469z"/>
		<path fill="#EBE7D9" d="M167.573,20.686h2.47l1.417,9.166h-2.652l-0.221-1.625h-3.51l-1.093,1.625h-2.742L167.573,20.686z
			 M168.378,26.263l-0.325-2.613l-1.703,2.613H168.378z"/>
		<path fill="#EBE7D9" d="M174.164,26.328l-1.833-5.577h2.717l0.897,3.406l2.743-3.406h3.016l-5.083,5.85l-0.871,3.25h-2.535
			L174.164,26.328z"/>
	</g>
</g>
</svg>
