<?xml version="1.0" encoding="utf-8"?>
<!-- Generator: Adobe Illustrator 16.0.0, SVG Export Plug-In . SVG Version: 6.00 Build 0)  -->
<!DOCTYPE svg PUBLIC "-//W3C//DTD SVG 1.1//EN" "http://www.w3.org/Graphics/SVG/1.1/DTD/svg11.dtd">
<svg version="1.1" id="Layer_1" xmlns="http://www.w3.org/2000/svg" xmlns:xlink="http://www.w3.org/1999/xlink" x="0px" y="0px"
	 width="103.106px" height="50.833px" viewBox="0 0 103.106 50.833" enable-background="new 0 0 103.106 50.833"
	 xml:space="preserve">
<path fill="#F5CD81" d="M50.378,25.569c0-13.719-11.121-24.841-24.85-24.841c-13.694,0-24.815,11.122-24.815,24.841
	c0,13.719,11.122,24.841,24.815,24.841C39.257,50.41,50.378,39.288,50.378,25.569z"/>
<circle cx="77.553" cy="25.569" r="24.841"/>
<path fill="#721618" d="M33.423,23.992h-1.784c0.133,0.504,0.207,1.031,0.207,1.574c0,3.48-2.818,6.301-6.299,6.301
	c-3.479,0-6.299-2.818-6.299-6.301c0-0.543,0.076-1.07,0.206-1.574h-1.781v8.662c0,0.438,0.354,0.787,0.788,0.787h14.174
	c0.438,0,0.789-0.352,0.789-0.787L33.423,23.992L33.423,23.992z M33.423,18.481c0-0.435-0.354-0.787-0.789-0.787h-2.36
	c-0.437,0-0.787,0.354-0.787,0.787v2.363c0,0.435,0.353,0.787,0.787,0.787h2.36c0.437,0,0.789-0.353,0.789-0.787V18.481z
	 M25.547,21.632c-2.174,0-3.937,1.763-3.937,3.937s1.763,3.938,3.937,3.938c2.175,0,3.938-1.764,3.938-3.938
	C29.486,23.394,27.722,21.632,25.547,21.632 M33.423,35.807h-15.75c-1.304,0-2.362-1.061-2.362-2.365V17.694
	c0-1.304,1.059-2.362,2.362-2.362h15.75c1.304,0,2.359,1.059,2.359,2.362v15.747C35.782,34.746,34.727,35.807,33.423,35.807"/>
<path fill="#F5CD81" d="M85.439,23.992h-1.784c0.133,0.504,0.207,1.031,0.207,1.574c0,3.48-2.818,6.301-6.299,6.301
	c-3.479,0-6.299-2.818-6.299-6.301c0-0.543,0.076-1.07,0.206-1.574h-1.781v8.662c0,0.438,0.354,0.787,0.788,0.787h14.174
	c0.438,0,0.789-0.352,0.789-0.787L85.439,23.992L85.439,23.992z M85.439,18.481c0-0.435-0.354-0.787-0.789-0.787h-2.36
	c-0.437,0-0.787,0.354-0.787,0.787v2.363c0,0.435,0.353,0.787,0.787,0.787h2.36c0.437,0,0.789-0.353,0.789-0.787V18.481z
	 M77.563,21.632c-2.174,0-3.937,1.763-3.937,3.937s1.763,3.938,3.937,3.938c2.175,0,3.938-1.764,3.938-3.938
	C81.503,23.394,79.738,21.632,77.563,21.632 M85.439,35.807h-15.75c-1.304,0-2.362-1.061-2.362-2.365V17.694
	c0-1.304,1.059-2.362,2.362-2.362h15.75c1.304,0,2.359,1.059,2.359,2.362v15.747C87.799,34.746,86.743,35.807,85.439,35.807"/>
</svg>
