<?xml version="1.0" encoding="utf-8"?>
<!-- Generator: Adobe Illustrator 16.0.0, SVG Export Plug-In . SVG Version: 6.00 Build 0)  -->
<!DOCTYPE svg PUBLIC "-//W3C//DTD SVG 1.1//EN" "http://www.w3.org/Graphics/SVG/1.1/DTD/svg11.dtd">
<svg version="1.1" id="Layer_1" xmlns="http://www.w3.org/2000/svg" xmlns:xlink="http://www.w3.org/1999/xlink" x="0px" y="0px"
	 width="240.839px" height="281.342px" viewBox="0 0 240.839 281.342" enable-background="new 0 0 240.839 281.342"
	 xml:space="preserve">
<g>
	<path fill="#EBE7D9" d="M11.979,84.826h12.643l16.901,48.638h0.258l16.771-48.638h12.772v91.857H58.165v-55.863h-0.258
		l-13.03,39.478h-6.58l-12.901-39.478h-0.258v55.863H11.979V84.826z"/>
</g>
<g>
	<path fill="#EBE7D9" d="M81.642,106.5c0-14.965,11.353-22.448,22.062-22.448c10.708,0,22.061,7.483,22.061,22.448v48.509
		c0,14.965-11.353,22.448-22.061,22.448c-10.708,0-22.062-7.483-22.062-22.448V106.5z M94.801,155.01
		c0,6.321,4.129,9.289,8.902,9.289s8.902-2.968,8.902-9.289V106.5c0-6.322-4.128-9.289-8.902-9.289s-8.902,2.967-8.902,9.289V155.01
		z"/>
</g>
<g>
	<path fill="#EBE7D9" d="M135.18,84.826h12.643l19.868,55.347h0.258V84.826h13.16v91.857h-12.386l-20.126-55.218h-0.258v55.218
		H135.18V84.826z"/>
</g>
<g>
	<path fill="#EBE7D9" d="M191.685,84.826h13.16v41.929h0.258l19.223-41.929h13.159l-17.933,36.769l21.287,55.088h-13.934
		l-14.965-40.768l-7.096,13.288v27.48h-13.16V84.826z"/>
</g>
<g>
	<path fill="#EBE7D9" d="M11.979,188.71h21.158c15.611,0,23.223,9.16,23.223,26.964c0,10.579-2.967,18.32-11.353,22.964
		l14.191,41.93H45.264l-12.256-39.22h-7.87v39.22H11.979V188.71z M25.138,229.736h7.482c9.16,0,10.579-5.16,10.579-14.32
		c0-9.289-1.548-14.32-11.224-14.32h-6.837V229.736z"/>
</g>
<g>
	<path fill="#EBE7D9" d="M64.871,210.385c0-14.966,11.353-22.449,22.062-22.449c10.708,0,22.061,7.483,22.061,22.449v48.509
		c0,14.965-11.353,22.448-22.061,22.448c-10.708,0-22.062-7.483-22.062-22.448V210.385z M78.03,258.894
		c0,6.321,4.128,9.288,8.902,9.288c4.773,0,8.902-2.967,8.902-9.288v-48.509c0-6.322-4.128-9.289-8.902-9.289
		c-4.774,0-8.902,2.967-8.902,9.289V258.894z"/>
</g>
<g>
	<path fill="#EBE7D9" d="M118.538,210.385c0-14.966,11.353-22.449,22.062-22.449c10.708,0,22.061,7.483,22.061,22.449v48.509
		c0,14.965-11.353,22.448-22.061,22.448c-10.708,0-22.062-7.483-22.062-22.448V210.385z M131.697,258.894
		c0,6.321,4.128,9.288,8.902,9.288c4.773,0,8.902-2.967,8.902-9.288v-48.509c0-6.322-4.128-9.289-8.902-9.289
		c-4.774,0-8.902,2.967-8.902,9.289V258.894z"/>
</g>
<g>
	<path fill="#EBE7D9" d="M172.334,188.71h12.643l16.901,48.638h0.258l16.771-48.638h12.772v91.857h-13.159v-55.862h-0.258
		l-13.03,39.478h-6.58l-12.901-39.478h-0.258v55.862h-13.159V188.71z"/>
</g>
<g>
	<polygon fill="#EBE7D9" points="0.221,0 0,0 0,0.22 0,9.82 0,10.041 0.221,10.041 11.801,10.041 11.801,71.424 11.801,71.645 
		12.021,71.645 22.221,71.645 22.441,71.645 22.441,71.424 22.441,10.041 34.022,10.041 34.242,10.041 34.242,9.82 34.242,0.22 
		34.242,0 34.022,0 	"/>
	<polygon fill="#EBE7D9" points="63.122,0 62.901,0 62.901,0.22 62.901,30.501 50.741,30.501 50.741,0.22 50.741,0 50.521,0 
		40.32,0 40.101,0 40.101,0.22 40.101,71.424 40.101,71.645 40.32,71.645 50.521,71.645 50.741,71.645 50.741,71.424 50.741,39.941 
		62.901,39.941 62.901,71.424 62.901,71.645 63.122,71.645 73.322,71.645 73.542,71.645 73.542,71.424 73.542,0.22 73.542,0 
		73.322,0 	"/>
	<polygon fill="#EBE7D9" points="112.423,0 82.021,0 81.8,0 81.8,0.22 81.8,71.424 81.8,71.645 82.021,71.645 112.423,71.645 
		112.643,71.645 112.643,71.424 112.643,61.223 112.643,61.003 112.423,61.003 92.441,61.003 92.441,40.542 109.822,40.542 
		110.042,40.542 110.042,40.322 110.042,30.721 110.042,30.501 109.822,30.501 92.441,30.501 92.441,10.041 112.423,10.041 
		112.643,10.041 112.643,9.82 112.643,0.22 112.643,0 	"/>
</g>
</svg>
