<?xml version="1.0" encoding="utf-8"?>
<!-- Generator: Adobe Illustrator 16.0.0, SVG Export Plug-In . SVG Version: 6.00 Build 0)  -->
<!DOCTYPE svg PUBLIC "-//W3C//DTD SVG 1.1//EN" "http://www.w3.org/Graphics/SVG/1.1/DTD/svg11.dtd">
<svg version="1.1" id="Layer_1" xmlns="http://www.w3.org/2000/svg" xmlns:xlink="http://www.w3.org/1999/xlink" x="0px" y="0px"
	 width="700px" height="35.5px" viewBox="0 0 700 35.5" enable-background="new 0 0 700 35.5" xml:space="preserve">
<rect fill="#D5C9B0" width="700" height="33.5"/>
<rect y="33.5" width="700" height="2"/>
<g>
	<path d="M217.32,21.991h1.265l2.337-8.418h-1.457l0.24-1.057h2.497l1.761,7.203l5.01-7.203h2.529l-0.24,1.057h-1.312l-1.569,8.418
		h1.457l-0.256,1.057h-3.874l0.24-1.057h1.264l1.441-7.362l-4.962,7.042h-0.208l-1.792-7.042l-1.937,7.362h1.425l-0.24,1.057h-3.874
		L217.32,21.991z"/>
	<path d="M231.913,18.71c0-3.121,2.481-6.386,5.858-6.386c2.817,0,4.45,1.969,4.45,4.53c0,3.121-2.481,6.386-5.858,6.386
		C233.545,23.24,231.913,21.271,231.913,18.71z M240.988,16.87c0-1.873-1.072-3.457-3.313-3.457c-2.593,0-4.53,2.657-4.53,5.282
		c0,1.873,1.072,3.457,3.313,3.457C239.052,22.151,240.988,19.495,240.988,16.87z"/>
	<path d="M246.938,14.501l-1.729,7.49h1.457l-0.24,1.057h-3.89l0.256-1.057h1.265l1.953-8.418h-1.425l0.24-1.057h2.417l4.05,8.051
		l1.617-6.995h-1.473l0.256-1.057h3.826l-0.24,1.057h-1.232l-2.193,9.523h-0.592L246.938,14.501z"/>
	<path d="M254.825,21.991h1.265l1.953-8.418h-1.425l0.24-1.057h3.345c2.049,0,3.282,0.512,4.242,1.473
		c0.688,0.704,1.104,1.761,1.104,2.913c0,1.68-0.576,3.073-1.648,4.145c-1.329,1.345-3.201,2.001-5.554,2.001h-3.778L254.825,21.991
		z M258.538,21.991c1.937,0,3.394-0.56,4.386-1.568c0.928-0.912,1.376-2.112,1.376-3.473c0-0.896-0.32-1.729-0.848-2.241
		c-0.688-0.704-1.633-1.136-3.361-1.136h-0.864l-1.953,8.418H258.538z"/>
	<path d="M265.353,21.991h0.96l5.026-8.435h-1.249l0.24-1.041h4.834l-0.24,1.041h-1.201l1.121,8.435h1.12l-0.256,1.057h-3.441
		l0.24-1.04h1.168l-0.32-2.593h-4.29l-1.537,2.593h1.393l-0.256,1.04h-3.569L265.353,21.991z M273.212,18.391l-0.624-4.914
		l-2.914,4.914H273.212z"/>
	<path d="M278.217,21.991h1.425l0.784-3.185l-1.825-5.234h-1.104l0.256-1.057h3.521l-0.224,1.057h-1.217l1.409,4.337l3.521-4.337
		h-1.185l0.256-1.057h3.617l-0.24,1.057h-1.056l-4.61,5.458l-0.704,2.961h1.488l-0.224,1.057h-4.146L278.217,21.991z"/>
	<path d="M290.169,18.054h10.34l-0.24,1.088h-10.356L290.169,18.054z"/>
	<path d="M304.665,20.823c0-0.656,0.417-1.104,0.96-1.104c0.48,0,0.816,0.4,0.816,0.784c0,0.336-0.16,0.608-0.448,0.8
		c0.336,0.448,1.152,0.881,2.401,0.881c1.217,0,2.241-0.736,2.241-1.841c0-0.912-0.769-1.456-1.809-2.064
		c-1.312-0.768-2.481-1.568-2.481-3.089c0-1.504,1.376-2.849,3.41-2.849c1.809,0,3.217,1.057,3.217,2.129
		c0,0.672-0.432,1.088-0.929,1.088c-0.48,0-0.816-0.368-0.816-0.816c0-0.24,0.128-0.512,0.4-0.705
		c-0.256-0.304-0.928-0.656-1.905-0.656c-1.296,0-2.145,0.769-2.145,1.729c0,0.945,0.752,1.457,1.953,2.161
		c1.2,0.72,2.337,1.52,2.337,2.993c0,1.696-1.489,2.961-3.554,2.961C306.201,23.224,304.665,21.943,304.665,20.823z"/>
	<path d="M314.713,20.135c0-0.384,0.064-0.816,0.16-1.265l1.232-5.297h-1.408l0.24-1.057h3.89l-0.24,1.057h-1.296l-1.232,5.362
		c-0.08,0.4-0.144,0.784-0.144,1.12c0,1.265,0.688,2.113,2.321,2.113s2.561-1.089,2.913-2.642l1.361-5.954h-1.457l0.24-1.057h3.89
		l-0.24,1.057h-1.265l-1.393,6.098c-0.496,2.145-1.745,3.553-4.178,3.553C315.914,23.224,314.713,21.976,314.713,20.135z"/>
	<path d="M328.634,14.501l-1.729,7.49h1.457l-0.24,1.057h-3.89l0.256-1.057h1.265l1.953-8.418h-1.425l0.24-1.057h2.417l4.05,8.051
		l1.617-6.995h-1.473l0.256-1.057h3.826l-0.24,1.057h-1.232l-2.193,9.523h-0.592L328.634,14.501z"/>
	<path d="M336.52,21.991h1.265l1.953-8.418h-1.425l0.24-1.057h3.345c2.049,0,3.282,0.512,4.242,1.473
		c0.688,0.704,1.104,1.761,1.104,2.913c0,1.68-0.576,3.073-1.648,4.145c-1.329,1.345-3.201,2.001-5.554,2.001h-3.778L336.52,21.991z
		 M340.233,21.991c1.937,0,3.394-0.56,4.386-1.568c0.928-0.912,1.376-2.112,1.376-3.473c0-0.896-0.32-1.729-0.848-2.241
		c-0.688-0.704-1.633-1.136-3.361-1.136h-0.864l-1.953,8.418H340.233z"/>
	<path d="M347.048,21.991h0.96l5.026-8.435h-1.248l0.24-1.041h4.834l-0.24,1.041h-1.2l1.12,8.435h1.12l-0.256,1.057h-3.441
		l0.24-1.04h1.168l-0.319-2.593h-4.29l-1.537,2.593h1.392l-0.256,1.04h-3.569L347.048,21.991z M354.907,18.391l-0.624-4.914
		l-2.913,4.914H354.907z"/>
	<path d="M359.914,21.991h1.424l0.785-3.185l-1.825-5.234h-1.104l0.256-1.057h3.521l-0.224,1.057h-1.217l1.409,4.337l3.521-4.337
		h-1.184l0.256-1.057h3.617l-0.24,1.057h-1.057l-4.609,5.458l-0.704,2.961h1.488l-0.224,1.057h-4.146L359.914,21.991z"/>
	<path d="M397.336,14.261l-1.953,0.48l-0.512-2.017l3.217-0.96h1.681v11.284h-2.433V14.261z"/>
	<path d="M404.024,14.261l-1.953,0.48l-0.512-2.017l3.217-0.96h1.681v11.284h-2.433V14.261z"/>
	<path d="M408.438,20.583v-0.032c0-1.872,1.425-2.736,3.458-2.736c0.864,0,1.488,0.144,2.097,0.352v-0.144
		c0-1.009-0.624-1.569-1.841-1.569c-0.929,0-1.585,0.176-2.369,0.464l-0.608-1.857c0.944-0.416,1.873-0.688,3.329-0.688
		c1.329,0,2.289,0.352,2.897,0.96c0.641,0.641,0.929,1.585,0.929,2.737v4.978h-2.354v-0.929c-0.592,0.656-1.408,1.089-2.593,1.089
		C409.768,23.208,408.438,22.279,408.438,20.583z M414.025,20.022v-0.432c-0.417-0.192-0.961-0.32-1.553-0.32
		c-1.041,0-1.681,0.416-1.681,1.185v0.032c0,0.656,0.544,1.04,1.328,1.04C413.257,21.527,414.025,20.903,414.025,20.022z"/>
	<path d="M418.359,14.469h2.433v1.217c0.561-0.721,1.297-1.377,2.529-1.377c1.12,0,1.969,0.497,2.417,1.361
		c0.752-0.88,1.648-1.361,2.817-1.361c1.809,0,2.896,1.089,2.896,3.153v5.586h-2.433v-4.786c0-1.152-0.513-1.744-1.425-1.744
		s-1.473,0.592-1.473,1.744v4.786h-2.433v-4.786c0-1.152-0.513-1.744-1.425-1.744s-1.473,0.592-1.473,1.744v4.786h-2.433V14.469z"/>
	<path d="M436.807,16.918h4.93v2.337h-4.93V16.918z"/>
	<path d="M452.44,20.631h-5.475l-0.4-1.744l6.146-7.123h2.081v6.866h1.505v2.001h-1.505v2.417h-2.353V20.631z M452.44,18.63v-3.489
		l-2.978,3.489H452.44z"/>
	<path d="M458.118,14.469h2.433v1.232c0.593-0.8,1.409-1.393,2.673-1.393c2.001,0,3.906,1.569,3.906,4.434v0.032
		c0,2.865-1.873,4.434-3.906,4.434c-1.296,0-2.097-0.593-2.673-1.28v3.681h-2.433V14.469z M464.696,18.774v-0.032
		c0-1.424-0.96-2.369-2.097-2.369s-2.081,0.944-2.081,2.369v0.032c0,1.425,0.944,2.369,2.081,2.369S464.696,20.215,464.696,18.774z"
		/>
	<path d="M468.854,14.469h2.433v1.217c0.561-0.721,1.297-1.377,2.529-1.377c1.12,0,1.969,0.497,2.417,1.361
		c0.752-0.88,1.648-1.361,2.817-1.361c1.809,0,2.896,1.089,2.896,3.153v5.586h-2.433v-4.786c0-1.152-0.513-1.744-1.425-1.744
		s-1.473,0.592-1.473,1.744v4.786h-2.433v-4.786c0-1.152-0.513-1.744-1.425-1.744s-1.473,0.592-1.473,1.744v4.786h-2.433V14.469z"/>
</g>
</svg>
