<?xml version="1.0" encoding="utf-8"?>
<!-- Generator: Adobe Illustrator 16.0.0, SVG Export Plug-In . SVG Version: 6.00 Build 0)  -->
<!DOCTYPE svg PUBLIC "-//W3C//DTD SVG 1.1//EN" "http://www.w3.org/Graphics/SVG/1.1/DTD/svg11.dtd">
<svg version="1.1" id="Layer_1" xmlns="http://www.w3.org/2000/svg" xmlns:xlink="http://www.w3.org/1999/xlink" x="0px" y="0px"
	 width="218.645px" height="35px" viewBox="0 0 218.645 35" enable-background="new 0 0 218.645 35" xml:space="preserve">
<polygon points="218.645,0 0,0 0,0.21 17.29,17.5 0,34.79 0,35 218.645,35 201.145,17.5 "/>
<g>
	<path fill="#D8D4C6" d="M35.016,23.098c0-0.84,0.576-1.464,1.368-1.464c0.72,0,1.32,0.552,1.32,1.272c0,0.216-0.072,0.432-0.24,0.6
		c0.312,0.192,0.792,0.384,1.56,0.384c1.056,0,2.112-0.432,3.072-1.319c1.176-1.057,2.208-3.049,2.544-4.849
		c-0.696,1.056-2.208,2.208-4.2,2.208c-2.665,0-4.464-1.8-4.464-4.272c0-3.072,2.496-5.664,5.808-5.664
		c1.584,0,2.688,0.527,3.552,1.416c0.937,0.936,1.393,2.4,1.393,4.032c0,3.024-1.128,6.145-3.072,8.089
		c-1.296,1.296-2.833,2.063-4.801,2.063C36.672,25.594,35.016,24.466,35.016,23.098z M43.944,12.633
		c-0.504-0.527-1.224-0.864-2.16-0.864c-2.04,0-3.672,1.776-3.672,3.696c0,1.633,0.984,2.688,2.785,2.688
		c2.16,0,3.792-1.68,3.792-3.576C44.688,13.833,44.449,13.137,43.944,12.633z"/>
	<path fill="#D8D4C6" d="M48.384,24.37l8.856-12.481h-5.928l-0.6,2.521H48.84l0.984-4.225h9.793l0.432,0.912L50.04,25.498
		L48.384,24.37z"/>
	<path fill="#D8D4C6" d="M58.896,22.042c0-0.984,0.6-1.608,1.368-1.608c0.744,0,1.272,0.576,1.272,1.225
		c0,0.432-0.264,0.888-0.6,1.031c0.216,0.433,1.272,1.129,3.048,1.129c2.017,0,3.312-1.297,3.312-2.784
		c0-1.561-1.368-2.713-3.576-2.713h-0.6l0.432-1.704h0.552c2.568,0,4.44-1.08,4.44-2.784c0-1.296-1.104-2.088-2.76-2.088
		c-1.224,0-1.848,0.264-2.232,0.6c0.264,0.192,0.408,0.528,0.408,0.864c0,0.72-0.552,1.248-1.272,1.248
		c-0.672,0-1.344-0.456-1.344-1.416c0-1.632,1.992-3.048,4.537-3.048c2.952,0,4.824,1.56,4.824,3.72c0,1.872-1.44,3.408-4.2,3.841
		c1.992,0.744,2.88,2.112,2.88,3.552c0,2.496-2.256,4.465-5.449,4.465C61.104,25.57,58.896,23.89,58.896,22.042z"/>
	<path fill="#D8D4C6" d="M77.783,14.77h5.904l-0.48,2.112h-5.904L77.783,14.77z"/>
	<path fill="#D8D4C6" d="M88.966,22.042c0-0.984,0.6-1.608,1.368-1.608c0.744,0,1.272,0.576,1.272,1.225
		c0,0.432-0.264,0.888-0.6,1.031c0.216,0.433,1.272,1.129,3.048,1.129c2.017,0,3.312-1.297,3.312-2.784
		c0-1.561-1.368-2.713-3.576-2.713h-0.6l0.432-1.704h0.552c2.568,0,4.44-1.08,4.44-2.784c0-1.296-1.104-2.088-2.76-2.088
		c-1.224,0-1.848,0.264-2.232,0.6c0.264,0.192,0.408,0.528,0.408,0.864c0,0.72-0.552,1.248-1.272,1.248
		c-0.672,0-1.344-0.456-1.344-1.416c0-1.632,1.992-3.048,4.537-3.048c2.952,0,4.824,1.56,4.824,3.72c0,1.872-1.44,3.408-4.2,3.841
		c1.992,0.744,2.88,2.112,2.88,3.552c0,2.496-2.256,4.465-5.449,4.465C91.175,25.57,88.966,23.89,88.966,22.042z"/>
	<path fill="#D8D4C6" d="M102.551,17.289c0-2.928,1.104-6.408,3.504-8.496c1.176-1.032,2.592-1.681,4.392-1.681
		c2.185,0,3.816,1.128,3.816,2.496c0,0.816-0.552,1.465-1.368,1.465c-0.72,0-1.296-0.553-1.296-1.297
		c0-0.191,0.048-0.432,0.216-0.575c-0.216-0.192-0.696-0.408-1.464-0.408c-1.08,0-2.208,0.432-3.192,1.344
		c-1.128,1.032-2.16,3-2.521,4.849c0.696-1.032,2.208-2.185,4.201-2.185c2.665,0,4.464,1.801,4.464,4.272
		c0,3.072-2.472,5.665-5.809,5.665c-1.584,0-2.688-0.528-3.552-1.416C103.007,20.386,102.551,18.922,102.551,17.289z
		 M105.335,20.122c0.504,0.527,1.224,0.815,2.16,0.815c2.04,0,3.672-1.752,3.672-3.696c0-1.607-0.984-2.688-2.76-2.688
		c-2.184,0-3.816,1.705-3.816,3.577C104.591,18.922,104.855,19.617,105.335,20.122z"/>
	<path fill="#D8D4C6" d="M115.39,18.657c0-2.063,1.416-3.576,3.648-4.176c-1.32-0.769-1.92-1.992-1.92-3.12
		c0-2.28,2.208-4.249,5.064-4.249c2.88,0,4.729,1.824,4.729,3.984c0,1.896-1.297,3.288-3.265,3.816c1.44,0.721,2.28,1.992,2.28,3.36
		c0,2.376-2.232,4.465-5.616,4.465C117.358,22.738,115.39,20.794,115.39,18.657z M123.839,18.058c0-1.488-1.345-2.568-3.001-2.568
		c-2.016,0-3.408,1.416-3.408,2.952c0,1.488,1.368,2.544,3.001,2.544C122.494,20.985,123.839,19.689,123.839,18.058z
		 M124.847,11.241c0-1.32-1.08-2.353-2.688-2.353c-1.752,0-3.024,1.2-3.024,2.664c0,1.296,1.08,2.353,2.641,2.353
		C123.526,13.905,124.847,12.729,124.847,11.241z"/>
	<path fill="#D8D4C6" d="M133.654,14.77h5.904l-0.479,2.112h-5.905L133.654,14.77z"/>
	<path fill="#D8D4C6" d="M145.198,21.394c1.128-2.448,3.601-3.888,6.001-4.992c2.088-0.937,3.624-1.729,3.624-2.977
		c0-0.983-1.032-1.632-2.568-1.632c-1.056,0-1.92,0.312-2.4,0.769c0.24,0.216,0.385,0.527,0.385,0.888c0,0.744-0.576,1.32-1.32,1.32
		c-0.769,0-1.416-0.601-1.416-1.44c0-1.608,1.944-3.336,4.92-3.336c2.784,0,4.585,1.464,4.585,3.312
		c0,2.232-2.521,3.457-4.944,4.513c-2.496,1.104-3.601,1.849-4.393,3.024h6.192l0.48-2.04h1.775l-0.863,3.744h-9.817L145.198,21.394
		z"/>
	<path fill="#D8D4C6" d="M158.638,24.37l8.857-12.481h-5.929l-0.601,2.521h-1.872l0.984-4.225h9.793l0.432,0.912l-10.009,14.401
		L158.638,24.37z"/>
	<path fill="#D8D4C6" d="M170.733,24.37l8.857-12.481h-5.929l-0.601,2.521h-1.872l0.984-4.225h9.793l0.432,0.912L172.39,25.498
		L170.733,24.37z"/>
	<path fill="#D8D4C6" d="M182.445,20.794h2.832l1.969-8.521l-2.641,0.647l-0.072-1.8l4.297-1.08l0.936,0.432l-2.399,10.321h2.855
		l-0.384,1.728h-7.801L182.445,20.794z"/>
</g>
</svg>
