<?xml version="1.0" encoding="utf-8"?>
<!-- Generator: Adobe Illustrator 16.0.0, SVG Export Plug-In . SVG Version: 6.00 Build 0)  -->
<!DOCTYPE svg PUBLIC "-//W3C//DTD SVG 1.1//EN" "http://www.w3.org/Graphics/SVG/1.1/DTD/svg11.dtd">
<svg version="1.1" id="Layer_1" xmlns="http://www.w3.org/2000/svg" xmlns:xlink="http://www.w3.org/1999/xlink" x="0px" y="0px"
	 width="103.106px" height="50.833px" viewBox="0 0 103.106 50.833" enable-background="new 0 0 103.106 50.833"
	 xml:space="preserve">
<path fill="#F5CD81" d="M50.378,25.569c0-13.719-11.121-24.841-24.85-24.841c-13.694,0-24.815,11.122-24.815,24.841
	c0,13.719,11.122,24.841,24.815,24.841C39.257,50.41,50.378,39.288,50.378,25.569z"/>
<circle cx="77.553" cy="25.569" r="24.841"/>
<path fill="#721618" d="M36.587,18.716c-0.811,0.361-1.688,0.604-2.604,0.714c0.936-0.561,1.654-1.45,1.992-2.509
	c-0.875,0.52-1.846,0.896-2.879,1.101c-0.826-0.881-2.006-1.432-3.311-1.432c-2.504,0-4.522,2.03-4.522,4.534
	c0,0.354,0.038,0.701,0.109,1.033c-3.752-0.189-7.092-1.994-9.331-4.737c-0.389,0.67-0.613,1.449-0.613,2.279
	c0,1.573,0.799,2.962,2.018,3.774c-0.744-0.024-1.443-0.228-2.055-0.568c0,0.02,0,0.038,0,0.058c0,2.195,1.562,4.029,3.637,4.445
	c-0.379,0.104-0.779,0.158-1.193,0.158c-0.293,0-0.576-0.027-0.855-0.08c0.578,1.801,2.254,3.111,4.236,3.148
	c-1.551,1.215-3.506,1.938-5.631,1.938c-0.365,0-0.727-0.02-1.082-0.061c2.008,1.287,4.391,2.037,6.951,2.037
	c8.324,0,12.882-6.908,12.882-12.9c0-0.196-0.004-0.393-0.014-0.586C35.21,20.424,35.979,19.625,36.587,18.716z"/>
<path fill="#F5CD81" d="M88.604,18.716c-0.811,0.361-1.688,0.604-2.604,0.714c0.936-0.561,1.654-1.45,1.992-2.509
	c-0.875,0.52-1.846,0.896-2.879,1.101c-0.826-0.881-2.006-1.432-3.311-1.432c-2.504,0-4.533,2.03-4.533,4.534
	c0,0.354,0.041,0.701,0.117,1.033c-3.768-0.189-7.107-1.994-9.346-4.737c-0.389,0.67-0.613,1.449-0.613,2.279
	c0,1.573,0.799,2.962,2.018,3.774c-0.744-0.024-1.443-0.228-2.055-0.568c0,0.02,0,0.038,0,0.058c0,2.195,1.562,4.029,3.637,4.445
	c-0.379,0.104-0.779,0.158-1.193,0.158c-0.293,0-0.576-0.027-0.855-0.08c0.578,1.801,2.254,3.111,4.236,3.148
	c-1.551,1.215-3.506,1.938-5.631,1.938c-0.365,0-0.727-0.02-1.082-0.061c2.008,1.287,4.391,2.037,6.951,2.037
	c8.342,0,12.9-6.908,12.9-12.9c0-0.196-0.004-0.393-0.014-0.586C87.228,20.424,87.997,19.625,88.604,18.716z"/>
</svg>
